<svg xmlns="http://www.w3.org/2000/svg" viewBox="0 0 72 90"><path d="M36 45.1c-4.6 0-8.4 3.8-8.4 8.4 0 4.6 3.8 8.4 8.4 8.4 4.6 0 8.4-3.8 8.4-8.4 0-4.7-3.8-8.4-8.4-8.4zm-1.6-29.4h3.2L43.9.5H28.1"/><path d="M53.6 54.5c.6-.6.6-1.6 0-2.2l-1.2-1.2c-.4-.4-.6-1.1-.3-1.7l.7-1.6c.3-.8 0-1.7-.8-2l-1.7-.7c-.6-.2-1-.8-1-1.4v-1.8c0-.9-.7-1.6-1.6-1.6H46c-.6 0-1.2-.4-1.4-1l-.7-1.6c-.3-.8-1.2-1.2-2-.9l-1.7.7c-.6.2-1.2.1-1.7-.3l-1.3-1.3c-.6-.6-1.6-.6-2.2 0l-1.2 1.2c-.4.4-1.1.6-1.7.3l-1.6-.7c-.8-.3-1.7 0-2 .8l-.7 1.7c-.2.6-.8 1-1.4 1h-1.8c-.9 0-1.6.7-1.6 1.6v1.7c0 .6-.4 1.2-1 1.4l-1.6.7c-.8.3-1.2 1.2-.9 2l.7 1.7c.2.6.1 1.2-.3 1.7l-1.3 1.3c-.6.6-.6 1.6 0 2.2l1.2 1.2c.4.4.6 1.1.3 1.7l-.7 1.6c-.3.8 0 1.7.8 2l1.7.7c.6.2 1 .8 1 1.4v1.8c0 .9.7 1.6 1.6 1.6h1.7c.6 0 1.2.4 1.4 1l.7 1.6c.3.8 1.2 1.2 2 .9l1.7-.7c.6-.2 1.2-.1 1.7.3l1.3 1.3c.6.6 1.6.6 2.2 0l1.2-1.2c.4-.4 1.1-.6 1.7-.3l1.6.7c.8.3 1.7 0 2-.8l.7-1.7c.2-.6.8-1 1.4-1h1.8c.9 0 1.6-.7 1.6-1.6v-1.7c0-.6.4-1.2 1-1.4l1.6-.7c.8-.3 1.2-1.2.9-2l-.7-1.7c-.2-.6-.1-1.2.3-1.7l1.3-1.3zM36 65.9c-6.9 0-12.5-5.6-12.5-12.5S29.1 40.9 36 40.9s12.5 5.6 12.5 12.5S42.9 65.9 36 65.9z"/><path d="M53.6 54.5c.6-.6.6-1.6 0-2.2l-1.2-1.2c-.4-.4-.6-1.1-.3-1.7l.7-1.6c.3-.8 0-1.7-.8-2l-1.7-.7c-.6-.2-1-.8-1-1.4v-1.8c0-.9-.7-1.6-1.6-1.6H46c-.6 0-1.2-.4-1.4-1l-.7-1.6c-.3-.8-1.2-1.2-2-.9l-1.7.7c-.6.2-1.2.1-1.7-.3l-1.3-1.3c-.6-.6-1.6-.6-2.2 0l-1.2 1.2c-.4.4-1.1.6-1.7.3l-1.6-.7c-.8-.3-1.7 0-2 .8l-.7 1.7c-.2.6-.8 1-1.4 1h-1.8c-.9 0-1.6.7-1.6 1.6v1.7c0 .6-.4 1.2-1 1.4l-1.6.7c-.8.3-1.2 1.2-.9 2l.7 1.7c.2.6.1 1.2-.3 1.7l-1.3 1.3c-.6.6-.6 1.6 0 2.2l1.2 1.2c.4.4.6 1.1.3 1.7l-.7 1.6c-.3.8 0 1.7.8 2l1.7.7c.6.2 1 .8 1 1.4v1.8c0 .9.7 1.6 1.6 1.6h1.7c.6 0 1.2.4 1.4 1l.7 1.6c.3.8 1.2 1.2 2 .9l1.7-.7c.6-.2 1.2-.1 1.7.3l1.3 1.3c.6.6 1.6.6 2.2 0l1.2-1.2c.4-.4 1.1-.6 1.7-.3l1.6.7c.8.3 1.7 0 2-.8l.7-1.7c.2-.6.8-1 1.4-1h1.8c.9 0 1.6-.7 1.6-1.6v-1.7c0-.6.4-1.2 1-1.4l1.6-.7c.8-.3 1.2-1.2.9-2l-.7-1.7c-.2-.6-.1-1.2.3-1.7l1.3-1.3zM36 65.9c-6.9 0-12.5-5.6-12.5-12.5S29.1 40.9 36 40.9s12.5 5.6 12.5 12.5S42.9 65.9 36 65.9zM24.3 36.1h.1l.1-.1c.9-2.1 2.9-3.5 5.2-3.5.8 0 1.5.1 2.2.4 1.1-1.1 2.5-1.7 4-1.7h.4L23.6.5l-14 5.8 12.6 30.2c.6-.3 1.4-.4 2.1-.4zm18.1-3.6c2.3 0 4.4 1.4 5.3 3.5.8 0 1.5.2 2.1.4L62.4 6.3 48.4.5 38.2 24.9l3.2 7.8c.4-.1.7-.2 1-.2z"/></svg>